# xmcd
#
# Track frame offsets: 
#        150
#        38118
#        66393
#        94240
#        113153
#        134513
#        155223
#        179208
#        201798
#        226988
#        248413
#        273300
#
# Disc length: 4002 seconds
#
# Revision: 10
# Processed by: cddbd v1.5.2PL0 Copyright (c) Steve Scherf et al.
# Submitted via: ExactAudioCopyFreeDBPlugin 1.0
#
DISCID=b10fa00c
DTITLE=Various Artist - Smooth Grooves
DYEAR=1995
DGENRE=SMB
TTITLE0=Earth, Wind and Fire - Reasons (live version)
TTITLE1=Heatwave - Always and Forever
TTITLE2=The O'Jays - Forever Mine
TTITLE3=Larry Graham - One in a Million You
TTITLE4=The Manhattans - Shining Star
TTITLE5=Champaign - How 'Bout Us
TTITLE6=Con Funk Shun - Love's Train
TTITLE7=Teddy Pendergrass - Love T.K.O.
TTITLE8=Average White Band - A Love of Your Own
TTITLE9=Patti LaBelle - If Only You Knew
TTITLE10=Teena Marie - Out on a Limb (12" Single Version)
TTITLE11=Deniece Williams - Silly
EXTD=YEAR: 1995
EXTT0=
EXTT1=
EXTT2=
EXTT3=
EXTT4=
EXTT5=
EXTT6=
EXTT7=
EXTT8=
EXTT9=
EXTT10=
EXTT11=
PLAYORDER=
